# xmcd
#
# Track frame offsets: 
#        182
#        16920
#        34017
#        47100
#        64017
#        82230
#        101137
#        115062
#        130540
#        146125
#        160842
#        174670
#        189772
#
# Disc length: 2778 seconds
#
# Revision: 0
# Processed by: cddbd v1.5.2PL0 Copyright (c) Steve Scherf et al.
# Submitted via: ExactAudioCopyFreeDBPlugin 1.0
#
DISCID=aa0ad80d
DTITLE=Dick Rivers - entre la terre et l'amour
DYEAR=1998
DGENRE=Country
TTITLE0=Rien d'important
TTITLE1=La trahison des mots
TTITLE2=Eternelle
TTITLE3=Touriste
TTITLE4=Même si tu pars
TTITLE5=Vitrine girl
TTITLE6=Dans le ghetto
TTITLE7=C'est étrange
TTITLE8=Comme de l'eau qui coule
TTITLE9=La frontière
TTITLE10=Ce qu'on raconte en ville
TTITLE11=Interdit
TTITLE12=Vivre comme ça
EXTD=
EXTT0=
EXTT1=
EXTT2=
EXTT3=
EXTT4=
EXTT5=
EXTT6=
EXTT7=
EXTT8=
EXTT9=
EXTT10=
EXTT11=
EXTT12=
PLAYORDER=
